<svg width="36" height="36" viewBox="0 0 36 36" fill="none" xmlns="http://www.w3.org/2000/svg">
<path d="M35.9889 16.1124C35.9852 16.0382 35.9743 15.9667 35.9615 15.8941C35.9483 15.8176 35.9335 15.743 35.9108 15.6694C35.8906 15.6044 35.8642 15.5429 35.8367 15.4805C35.8041 15.406 35.7698 15.334 35.7274 15.2647C35.6933 15.209 35.654 15.1577 35.6138 15.1056C35.5624 15.039 35.5092 14.9755 35.4483 14.9163C35.4288 14.8974 35.4156 14.8739 35.3953 14.8558L19.1953 0.456141C18.5133 -0.152047 17.4867 -0.152047 16.8047 0.456141L0.604688 14.8558C0.584363 14.8739 0.571179 14.8974 0.551733 14.9163C0.490759 14.9755 0.437586 15.039 0.386169 15.1056C0.345959 15.1577 0.306738 15.209 0.27257 15.2647C0.230163 15.334 0.195886 15.406 0.163256 15.4805C0.135791 15.5429 0.109423 15.6044 0.0892086 15.6694C0.0664668 15.743 0.0517455 15.8176 0.0384521 15.8941C0.025708 15.9667 0.0148311 16.0382 0.0110958 16.1124C0.00955802 16.1423 0 16.1704 0 16.2005V34.2C0 35.1949 0.805078 36 1.8 36H34.2C35.1949 36 36 35.1949 36 34.2V16.2005C36 16.1704 35.9904 16.1423 35.9889 16.1124ZM12.6 19.027V16.2005H23.4V19.027L18 21.4298L12.6 19.027ZM18 4.20898L30.9146 15.689L27 17.4292V14.4005C27 13.4056 26.1949 12.6006 25.2 12.6006H10.8C9.80508 12.6006 9 13.4056 9 14.4005V17.4292L5.08535 15.689L18 4.20898ZM3.6 32.4001V18.9701L17.2687 25.0456C17.7328 25.253 18.2672 25.253 18.7312 25.0456L32.4 18.9701V32.4001H3.6Z" fill="#88713F"/>
</svg>
