<svg width="45" height="34" viewBox="0 0 45 34" fill="none" xmlns="http://www.w3.org/2000/svg">
<path d="M28.7114 0C20.1712 0 13.2271 5.50829 13.2271 12.282C13.2271 18.5925 19.0476 23.7551 26.8659 24.4734C30.1432 27.2566 34.1733 28.7383 38.3063 28.6793C38.4066 28.6793 38.507 28.6756 38.6073 28.6756C38.9408 28.6695 39.2653 28.5532 39.5386 28.3417C39.8119 28.1303 40.0217 27.8333 40.1411 27.489C40.2605 27.1447 40.2839 26.7688 40.2086 26.4097C40.1334 26.0505 39.9624 25.7244 39.7179 25.4734C38.7813 24.5123 37.8757 23.5636 37.0916 22.6324C39.0526 21.8469 40.7659 20.4521 42.0267 18.6157C43.2872 16.7794 44.0405 14.5797 44.1967 12.2813C44.1957 5.50829 37.2505 0 28.7114 0ZM33.8402 20.0476C33.5876 20.132 33.3569 20.2813 33.1668 20.4833C32.9766 20.6852 32.8324 20.9341 32.7461 21.2095C32.6597 21.4849 32.6336 21.7791 32.6699 22.0678C32.7063 22.3565 32.804 22.6316 32.955 22.8705C33.2723 23.3751 33.6134 23.8609 33.9773 24.3256C32.0262 23.8357 30.2184 22.81 28.7211 21.3433C28.4331 21.0371 28.0553 20.8553 27.6563 20.8309C21.4397 20.4435 16.5722 16.6897 16.5722 12.282C16.5722 7.62842 22.1322 3.69684 28.7114 3.69684C35.2906 3.69684 40.8506 7.62842 40.8506 12.282C40.8506 15.5637 38.1012 18.6143 33.8402 20.0476Z" fill="#88713F"/>
<path d="M6.26244 27.5133C5.5991 28.2859 4.84778 29.0659 4.07706 29.8563C3.83287 30.1071 3.66193 30.4327 3.58619 30.7915C3.51043 31.1503 3.53331 31.5259 3.65186 31.8702C3.77044 32.2145 3.97928 32.5119 4.25171 32.7242C4.52411 32.9366 4.84768 33.0543 5.18096 33.0622C5.27563 33.0622 5.37063 33.0655 5.4653 33.0655C9.19925 33.1148 12.8405 31.7802 15.8078 29.2748C17.1115 29.1308 18.3997 28.8492 19.6547 28.4338C19.8653 28.3594 20.0605 28.2395 20.2289 28.0812C20.3973 27.9229 20.5357 27.7292 20.636 27.5114C20.7363 27.2936 20.7965 27.056 20.8131 26.8123C20.8298 26.5687 20.8025 26.3238 20.733 26.0918C20.6634 25.8598 20.553 25.6454 20.408 25.461C20.2629 25.2765 20.0863 25.1256 19.8882 25.0171C19.6901 24.9085 19.4744 24.8445 19.2538 24.8287C19.0331 24.8128 18.8118 24.8455 18.6027 24.9247C17.4274 25.2964 16.2215 25.5383 15.003 25.6467C14.6037 25.6705 14.2255 25.8525 13.9379 26.1595C12.7609 27.3282 11.3513 28.1741 9.82335 28.6286C10.0292 28.3472 10.222 28.062 10.4017 27.7731C10.5528 27.5341 10.6505 27.259 10.6868 26.9703C10.7231 26.6815 10.697 26.3874 10.6106 26.1119C10.5242 25.8365 10.38 25.5875 10.1898 25.3856C9.99957 25.1836 9.76876 25.0343 9.51626 24.9499C5.76903 23.69 3.34514 21.0257 3.34514 18.1628C3.34514 15.1806 6.02393 12.3902 10.006 11.2206C10.2183 11.1584 10.4175 11.0508 10.5922 10.9036C10.7669 10.7564 10.9137 10.5726 11.0241 10.3628C11.1345 10.1529 11.2065 9.92112 11.2358 9.68053C11.2652 9.43997 11.2514 9.19535 11.1952 8.96068C11.139 8.726 11.0415 8.50586 10.9084 8.31281C10.7752 8.11976 10.6089 7.95758 10.4191 7.83555C10.2291 7.71348 10.0194 7.63399 9.80167 7.60154C9.584 7.56911 9.36266 7.58434 9.15031 7.64645C3.59001 9.27898 0 13.4046 0 18.1628C0.13071 20.2184 0.789374 22.19 1.89865 23.8463C3.00794 25.5025 4.5218 26.7746 6.26244 27.5133Z" fill="#88713F"/>
</svg>
