<svg width="40" height="38" viewBox="0 0 40 38" fill="none" xmlns="http://www.w3.org/2000/svg">
<path d="M12.6822 24.9274L17.1238 20.5499C17.5404 20.1381 17.7744 19.5802 17.7744 18.9986C17.7744 18.4171 17.5404 17.8592 17.1238 17.4473L12.6822 13.07C12.2643 12.6655 11.7011 12.44 11.1153 12.4426C10.5295 12.4452 9.9684 12.6757 9.55417 13.084C9.13993 13.4922 8.90604 14.0452 8.90339 14.6225C8.90073 15.1999 9.12953 15.7549 9.54 16.1669L10.1911 16.8086H2.22222C1.63285 16.8086 1.06762 17.0393 0.650874 17.4501C0.234126 17.8608 0 18.4179 0 18.9987C0 19.5796 0.234126 20.1366 0.650874 20.5474C1.06762 20.9581 1.63285 21.1889 2.22222 21.1889H10.191L9.53987 21.8306C9.33141 22.0335 9.16572 22.275 9.05234 22.5412C8.93895 22.8074 8.88011 23.0932 8.87919 23.3819C8.87828 23.6706 8.93531 23.9567 9.047 24.2236C9.1587 24.4906 9.32285 24.7331 9.53002 24.9373C9.73718 25.1414 9.98327 25.3032 10.2541 25.4133C10.525 25.5233 10.8152 25.5795 11.1082 25.5786C11.4012 25.5777 11.6911 25.5197 11.9612 25.4079C12.2313 25.2962 12.4764 25.1329 12.6822 24.9274ZM36.7729 3.2976L25.6662 0.168632C25.0046 -0.0177249 24.3081 -0.050136 23.6316 0.0739513C22.9551 0.198038 22.317 0.475235 21.7677 0.883707C21.2184 1.29218 20.7728 1.82077 20.4661 2.42785C20.1593 3.03492 19.9998 3.7039 20 4.38209V5.85787H13.3333C12.744 5.85787 12.1787 6.08862 11.762 6.49935C11.3452 6.91008 11.1111 7.46715 11.1111 8.04801C11.1111 8.62887 11.3452 9.18594 11.762 9.59667C12.1787 10.0074 12.744 10.2382 13.3333 10.2382H20V27.7593H13.3333C12.744 27.7593 12.1787 27.99 11.762 28.4007C11.3452 28.8115 11.1111 29.3686 11.1111 29.9494C11.1111 30.5303 11.3452 31.0873 11.762 31.4981C12.1787 31.9088 12.744 32.1396 13.3333 32.1396H20V33.6153C20.0003 34.7752 20.4667 35.8877 21.2972 36.7094C22.1277 37.5311 23.2546 37.9952 24.4314 38C24.8483 37.999 25.2631 37.9414 25.6641 37.8289L36.773 34.6998C37.7009 34.4367 38.5172 33.8839 39.0991 33.1245C39.681 32.3651 39.9971 31.44 40 30.4884V7.50904C39.9971 6.55742 39.6809 5.63242 39.099 4.87303C38.5171 4.11363 37.7009 3.56084 36.773 3.29771L36.7729 3.2976ZM35.5556 30.4863L24.4444 33.6153V4.38209L35.5556 7.51116V30.4863Z" fill="#88713F"/>
</svg>
