<svg width="27" height="36" viewBox="0 0 27 36" fill="none" xmlns="http://www.w3.org/2000/svg">
<path d="M24.75 13.4998H9V8.99972C8.99632 7.93934 9.36854 6.91197 10.0506 6.10002C10.7326 5.28808 11.6803 4.74412 12.7254 4.56472C13.7705 4.38532 14.8453 4.5821 15.7591 5.12011C16.6728 5.65812 17.3664 6.50255 17.7165 7.50346C17.9164 8.06583 18.3315 8.52575 18.8705 8.78205C19.4095 9.03835 20.0283 9.07003 20.5907 8.87012C21.153 8.67021 21.6129 8.25509 21.8692 7.71608C22.1255 7.17706 22.1572 6.55831 21.9573 5.99594C21.2517 3.99545 19.861 2.30916 18.0314 1.23559C16.2019 0.162018 14.0515 -0.229575 11.961 0.130133C9.87041 0.489842 7.97456 1.57765 6.60905 3.20098C5.24353 4.8243 4.49643 6.87844 4.5 8.99972V13.4998H2.25C1.65326 13.4998 1.08097 13.7368 0.65901 14.1588C0.237053 14.5807 0 15.153 0 15.7498V33.75C0 34.3467 0.237053 34.919 0.65901 35.341C1.08097 35.7629 1.65326 36 2.25 36H24.75C25.3467 36 25.919 35.7629 26.341 35.341C26.7629 34.919 27 34.3467 27 33.75V15.7498C27 15.153 26.7629 14.5807 26.341 14.1588C25.919 13.7368 25.3467 13.4998 24.75 13.4998ZM22.5 31.5H4.5V17.9998H22.5V31.5Z" fill="#88713F"/>
</svg>
