<svg width="174" height="181" viewBox="0 0 174 181" fill="none" xmlns="http://www.w3.org/2000/svg">
<g filter="url(#filter0_d)">
<path opacity="0.1" d="M25.5 82C25.5 48.0345 53.0345 20.5 87 20.5C120.966 20.5 148.5 48.0345 148.5 82C148.5 115.966 120.966 143.5 87 143.5C53.0345 143.5 25.5 115.966 25.5 82Z" stroke="black"/>
<path d="M84 88L90 82L84 76" stroke="black" stroke-width="3"/>
</g>
<path d="M40.2764 177.185C42.4912 177.185 44.0156 176.036 44.4395 174.081H42.9014C42.5527 175.182 41.6025 175.824 40.2832 175.824C38.4717 175.824 37.3232 174.368 37.3232 172.064C37.3232 169.781 38.4854 168.312 40.2764 168.312C41.5547 168.312 42.5801 169.07 42.9014 170.239H44.4395C44.1113 168.271 42.4502 166.951 40.2764 166.951C37.5215 166.951 35.7578 168.94 35.7578 172.064C35.7578 175.209 37.5078 177.185 40.2764 177.185ZM55.9512 167.136H54.1738L50.9883 174.922H50.9336L47.7412 167.136H45.9707V177H47.3652V169.74H47.4131L50.3936 176.925H51.5283L54.502 169.74H54.5498V177H55.9512V167.136ZM62.1719 166.972C59.3281 166.972 57.5508 168.934 57.5508 172.071C57.5508 175.209 59.3281 177.164 62.1719 177.164C65.0088 177.164 66.793 175.209 66.793 172.071C66.793 168.934 65.0088 166.972 62.1719 166.972ZM62.1719 168.318C64.0449 168.318 65.2207 169.768 65.2207 172.071C65.2207 174.368 64.0449 175.817 62.1719 175.817C60.2988 175.817 59.1162 174.368 59.1162 172.071C59.1162 169.768 60.2988 168.318 62.1719 168.318ZM71.7285 177V168.455H74.7979V167.136H67.1211V168.455H70.1973V177H71.7285ZM76.2266 167.136V177H77.7578V173.63H80.041C81.9756 173.63 83.3428 172.304 83.3428 170.376C83.3428 168.455 82.0029 167.136 80.0889 167.136H76.2266ZM77.7578 168.428H79.6855C81.0186 168.428 81.7773 169.139 81.7773 170.383C81.7773 171.627 81.0117 172.345 79.6855 172.345H77.7578V168.428ZM91.1016 175.674H86.3711V172.611H90.8486V171.34H86.3711V168.455H91.1016V167.136H84.8398V177H91.1016V175.674ZM96.8574 177V168.455H99.9268V167.136H92.25V168.455H95.3262V177H96.8574ZM101.355 177H105.163C107.084 177 108.417 175.708 108.417 173.835C108.417 171.962 107.057 170.67 105.115 170.67H102.887V167.136H101.355V177ZM102.887 175.701V171.962H104.76C106.079 171.962 106.845 172.632 106.845 173.835C106.845 175.031 106.086 175.701 104.76 175.701H102.887ZM117.167 177C119.272 177 120.537 175.947 120.537 174.211C120.537 172.898 119.628 171.948 118.295 171.798V171.743C119.279 171.579 120.045 170.643 120.045 169.597C120.045 168.106 118.896 167.136 117.153 167.136H113.113V177H117.167ZM114.645 168.387H116.777C117.892 168.387 118.521 168.893 118.521 169.809C118.521 170.786 117.789 171.333 116.456 171.333H114.645V168.387ZM114.645 175.749V172.502H116.771C118.213 172.502 118.972 173.049 118.972 174.115C118.972 175.182 118.24 175.749 116.859 175.749H114.645ZM126.163 177.185C128.378 177.185 129.902 176.036 130.326 174.081H128.788C128.439 175.182 127.489 175.824 126.17 175.824C124.358 175.824 123.21 174.368 123.21 172.064C123.21 169.781 124.372 168.312 126.163 168.312C127.441 168.312 128.467 169.07 128.788 170.239H130.326C129.998 168.271 128.337 166.951 126.163 166.951C123.408 166.951 121.645 168.94 121.645 172.064C121.645 175.209 123.395 177.185 126.163 177.185ZM138.119 175.674H133.389V172.611H137.866V171.34H133.389V168.455H138.119V167.136H131.857V177H138.119V175.674Z" fill="#828282"/>
<defs>
<filter id="filter0_d" x="0" y="0" width="174" height="174" filterUnits="userSpaceOnUse" color-interpolation-filters="sRGB">
<feFlood flood-opacity="0" result="BackgroundImageFix"/>
<feColorMatrix in="SourceAlpha" type="matrix" values="0 0 0 0 0 0 0 0 0 0 0 0 0 0 0 0 0 0 127 0"/>
<feOffset dy="5"/>
<feGaussianBlur stdDeviation="12.5"/>
<feColorMatrix type="matrix" values="0 0 0 0 0 0 0 0 0 0 0 0 0 0 0 0 0 0 0.05 0"/>
<feBlend mode="normal" in2="BackgroundImageFix" result="effect1_dropShadow"/>
<feBlend mode="normal" in="SourceGraphic" in2="effect1_dropShadow" result="shape"/>
</filter>
</defs>
</svg>
